<?xml version="1.0" encoding="UTF-8" standalone="no"?>
<svg
   xmlns:dc="http://purl.org/dc/elements/1.1/"
   xmlns:cc="http://creativecommons.org/ns#"
   xmlns:rdf="http://www.w3.org/1999/02/22-rdf-syntax-ns#"
   xmlns:svg="http://www.w3.org/2000/svg"
   xmlns="http://www.w3.org/2000/svg"
   xmlns:sodipodi="http://sodipodi.sourceforge.net/DTD/sodipodi-0.dtd"
   xmlns:inkscape="http://www.inkscape.org/namespaces/inkscape"
   height="64"
   id="Layer_1"
   version="1.1"
   viewBox="0 0 64 64"
   width="64"
   xml:space="preserve"
   inkscape:version="0.91pre3 r13670"
   sodipodi:docname="linkedin.svg"
   inkscape:export-filename="C:\Users\Alan\GitHub\AlanPlotko.com\assets\img\png\linkedin.png"
   inkscape:export-xdpi="90"
   inkscape:export-ydpi="90"><metadata
     id="metadata9"><rdf:RDF><cc:Work
         rdf:about=""><dc:format>image/svg+xml</dc:format><dc:type
           rdf:resource="http://purl.org/dc/dcmitype/StillImage" /><dc:title></dc:title></cc:Work></rdf:RDF></metadata><defs
     id="defs7" /><sodipodi:namedview
     pagecolor="#ffffff"
     bordercolor="#666666"
     borderopacity="1"
     objecttolerance="10"
     gridtolerance="10"
     guidetolerance="10"
     inkscape:pageopacity="0"
     inkscape:pageshadow="2"
     inkscape:window-width="1366"
     inkscape:window-height="705"
     id="namedview5"
     showgrid="false"
     inkscape:zoom="3.5223881"
     inkscape:cx="-11.942796"
     inkscape:cy="30.5"
     inkscape:window-x="-8"
     inkscape:window-y="-8"
     inkscape:window-maximized="1"
     inkscape:current-layer="Layer_1"
     fit-margin-top="0"
     fit-margin-left="0"
     fit-margin-right="0"
     fit-margin-bottom="0" /><path
     d="m 49.95947,47.079467 0,-12.4928 c 0,-6.693334 -3.57334,-9.808 -8.33707,-9.808 -3.84427,0 -5.56693,2.1152 -6.52693,3.598933 l 0,-3.086933 -7.24267,0 c 0.096,2.0448 0,21.7888 0,21.7888 l 7.24267,0 0,-12.168534 c 0,-0.6496 0.0469,-1.300266 0.23893,-1.765333 0.52267,-1.301333 1.71413,-2.648533 3.71413,-2.648533 2.62187,0 3.66934,1.997866 3.66934,4.925866 l 0,11.6576 7.2416,0 z M 20.22293,22.3168 c 2.5248,0 4.09814,-1.674667 4.09814,-3.7664 -0.0469,-2.136533 -1.57334,-3.7632 -4.05014,-3.7632 -2.4768,0 -4.09706,1.6256 -4.09706,3.7632 0,2.091733 1.57226,3.7664 4.0032,3.7664 l 0.04584,0 z M 32,64 C 14.32747,64 0,49.672533 0,32 0,14.3264 14.32747,0 32,0 49.67253,0 64,14.3264 64,32 64,49.672533 49.67253,64 32,64 Z m -8.15573,-16.920533 0,-21.7888 -7.2416,0 0,21.7888 7.2416,0 z"
     style="clip-rule:evenodd;fill:#444444;fill-rule:evenodd"
     id="path3"
     inkscape:connector-curvature="0" /></svg>