<?xml version="1.0" encoding="UTF-8" standalone="no"?>
<!-- Generated by IcoMoon.io -->

<svg
   xmlns:dc="http://purl.org/dc/elements/1.1/"
   xmlns:cc="http://creativecommons.org/ns#"
   xmlns:rdf="http://www.w3.org/1999/02/22-rdf-syntax-ns#"
   xmlns:svg="http://www.w3.org/2000/svg"
   xmlns="http://www.w3.org/2000/svg"
   xmlns:sodipodi="http://sodipodi.sourceforge.net/DTD/sodipodi-0.dtd"
   xmlns:inkscape="http://www.inkscape.org/namespaces/inkscape"
   sodipodi:docname="stackoverflow.svg"
   inkscape:version="0.91pre3 r13670"
   id="svg2"
   viewBox="0 0 64 64"
   height="64"
   width="64"
   version="1.1">
  <metadata
     id="metadata10">
    <rdf:RDF>
      <cc:Work
         rdf:about="">
        <dc:format>image/svg+xml</dc:format>
        <dc:type
           rdf:resource="http://purl.org/dc/dcmitype/StillImage" />
      </cc:Work>
    </rdf:RDF>
  </metadata>
  <defs
     id="defs8" />
  <sodipodi:namedview
     inkscape:current-layer="layer1"
     inkscape:window-maximized="1"
     inkscape:window-y="-8"
     inkscape:window-x="-8"
     inkscape:cy="52.199056"
     inkscape:cx="35.908313"
     inkscape:zoom="5.6568542"
     showgrid="false"
     id="namedview6"
     inkscape:window-height="705"
     inkscape:window-width="1366"
     inkscape:pageshadow="2"
     inkscape:pageopacity="0"
     guidetolerance="10"
     gridtolerance="10"
     objecttolerance="10"
     borderopacity="1"
     bordercolor="#666666"
     pagecolor="#ffffff" />
  <g
     inkscape:groupmode="layer"
     id="layer1"
     inkscape:label="Layer 1">
    <path
       style="fill:#444444;stroke:#000000;stroke-width:0.03543307;stroke-miterlimit:4;stroke-dasharray:none"
       d="M -3.796875 -3.796875 L -3.796875 67.253906 L 68.339844 67.253906 L 68.339844 -3.796875 L -3.796875 -3.796875 z M 31.228516 8 L 32.337891 8.875 L 50.740234 22.6875 L 47.695312 26.566406 L 45.582031 30.998047 L 44.5 35.773438 L 44.5 40.664062 L 19.5 40.664062 L 19.5 35.773438 L 44.5 35.773438 L 20.091797 30.480469 L 21.173828 25.707031 L 45.582031 30.998047 L 22.923828 20.666016 L 25.037109 16.232422 L 47.695312 26.566406 L 27.861328 11.679688 L 31.228516 8 z M 12 33.328125 L 17 33.328125 L 17 43.109375 L 47 43.109375 L 47 33.328125 L 52 33.328125 L 52 48 L 12 48 L 12 33.328125 z "
       id="rect4142" />
    <rect
       style="fill:#ffffff;fill-opacity:1;stroke:#000000;stroke-width:0.03543307;stroke-miterlimit:4;stroke-dasharray:none"
       id="rect4535"
       width="0.35355338"
       height="0.70710677"
       x="0.88388348"
       y="-6.7106781" />
  </g>
  <g
     inkscape:groupmode="layer"
     id="layer2"
     inkscape:label="Layer 2" />
</svg>
